<?xml version="1.0" encoding="UTF-8" standalone="no"?>
<svg width="1960px" height="1960px" viewBox="0 0 1960 1960" version="1.1" xmlns="http://www.w3.org/2000/svg" xmlns:xlink="http://www.w3.org/1999/xlink" xmlns:sketch="http://www.bohemiancoding.com/sketch/ns">
    <!-- Generator: Sketch 3.0.3 (7891) - http://www.bohemiancoding.com/sketch -->
    <title>Logo</title>
    <desc>Created with Sketch.</desc>
    <defs></defs>
    <g id="Page-1" stroke="none" stroke-width="1" fill="none" fill-rule="evenodd" sketch:type="MSPage">
        <g id="Logo" sketch:type="MSLayerGroup" transform="translate(-20.000000, -20.000000)">
            <g id="Hilfslinien"></g>
            <g id="Ebene_2" transform="translate(20.000000, 20.000000)" sketch:type="MSShapeGroup">
                <path d="M980,0 C438.76,0 0,438.76 0,980 C0,1521.24 438.76,1960 980,1960 C1521.24,1960 1960,1521.24 1960,980 C1960,438.76 1521.24,0 980,0 L980,0 Z M980,1860 C493.99,1860 100,1466.01 100,979.99 C100,493.97 493.99,99.98 980,99.98 C1466.01,99.98 1860,493.97 1860,979.99 C1860,1466.01 1466.01,1860 980,1860 L980,1860 Z" id="Shape" fill="#000000"></path>
                <path d="M980,1860 C493.99,1860 100,1466.01448 100,980 C100,493.985523 493.99,100 980,100 C1466.01,100 1860,493.985523 1860,980 C1860,1466.01448 1466.01,1860 980,1860 L980,1860 Z" id="Path" fill="#FFFFFF"></path>
                <g id="Group" transform="translate(401.000000, 548.000000)" fill="#000000">
                    <path d="M-0.281,-0.005 L256.719,-0.005 L256.719,513.37 C256.719,553.464 263.157,580.151 276.047,593.432 C288.922,606.729 314.375,613.37 352.406,613.37 L365.718,613.37 L365.718,863.995 L297.28,863.995 C203.561,863.995 130.53,836.683 78.202,782.042 C25.874,727.401 -0.282,651.558 -0.282,554.511 L-0.282,-0.005 L-0.281,-0.005 Z" id="Shape"></path>
                    <path d="M709.461,-0.005 L709.461,863.995 L452.461,863.995 L452.461,-0.005 L709.461,-0.005 L709.461,-0.005 Z M1202.039,-0.005 L974.227,391.854 L1200.774,863.995 L912.212,863.995 L716.68,386.792 L938.164,-0.005 L1202.039,-0.005 L1202.039,-0.005 Z" id="Shape"></path>
                </g>
            </g>
        </g>
    </g>
</svg>